<svg width="56" height="56" viewBox="0 0 56 56" fill="none" xmlns="http://www.w3.org/2000/svg">
<rect width="56" height="56" rx="28" fill="#F47B35"/>
<path d="M38.0076 24.043H32.0076C31.867 24.043 31.7459 23.9922 31.6444 23.8906C31.5428 23.7891 31.492 23.668 31.492 23.5273V17.5273C31.492 17.4492 31.5154 17.3711 31.5623 17.293C31.6092 17.2148 31.6717 17.1523 31.7498 17.1055C31.8279 17.0586 31.9139 17.0352 32.0076 17.0352C32.1326 17.0352 32.2459 17.0859 32.3475 17.1875C32.449 17.2891 32.4998 17.4023 32.4998 17.5273V23.0352H38.0076C38.1326 23.0352 38.2459 23.0859 38.3475 23.1875C38.449 23.2891 38.4998 23.4023 38.4998 23.5273C38.4998 23.6211 38.4764 23.707 38.4295 23.7852C38.3826 23.8633 38.3201 23.9258 38.242 23.9727C38.1639 24.0195 38.0858 24.043 38.0076 24.043ZM32.0076 24.043C31.867 24.043 31.7498 23.9883 31.6561 23.8789C31.6248 23.8477 31.5975 23.8125 31.574 23.7734C31.5506 23.7344 31.5311 23.6953 31.5154 23.6562C31.4998 23.6172 31.492 23.5781 31.492 23.5391C31.492 23.5 31.4998 23.457 31.5154 23.4102C31.5311 23.3633 31.5506 23.3203 31.574 23.2812C31.5975 23.2422 31.6248 23.207 31.6561 23.1758L38.6404 16.1914C38.7498 16.082 38.8709 16.0273 39.0037 16.0273C39.1365 16.0273 39.2537 16.0781 39.3553 16.1797C39.4569 16.2812 39.5076 16.3984 39.5076 16.5312C39.5076 16.6641 39.4529 16.7852 39.3436 16.8945L32.3592 23.8789C32.2498 23.9727 32.1326 24.0273 32.0076 24.043ZM36.0154 37.9648C35.9373 37.9648 35.8592 37.9648 35.7811 37.9648C32.5779 37.6055 29.6248 36.5508 26.9217 34.8008C24.4061 33.207 22.3514 31.1602 20.7576 28.6602C19.0076 25.9414 17.9608 22.9805 17.617 19.7773C17.5545 19.0742 17.7459 18.457 18.1912 17.9258C18.6365 17.3945 19.2029 17.0977 19.8904 17.0352C19.9061 17.0352 19.9295 17.0352 19.9608 17.0352C19.992 17.0352 20.0194 17.0352 20.0428 17.0352C20.0662 17.0352 20.0858 17.0352 20.1014 17.0352H23.1014H23.1248C23.5311 17.0352 23.9139 17.1289 24.2733 17.3164C24.6326 17.5039 24.9295 17.7617 25.1639 18.0898C25.3983 18.418 25.5467 18.7852 25.6092 19.1914C25.6717 19.6445 25.7576 20.0977 25.867 20.5508C25.9764 21.0039 26.117 21.4492 26.2889 21.8867C26.3983 22.1992 26.449 22.5117 26.4412 22.8242C26.4334 23.1367 26.367 23.4414 26.242 23.7383C26.117 24.0352 25.9451 24.3008 25.7264 24.5352L24.7186 25.5195C26.0467 27.7227 27.8123 29.4883 30.0154 30.8164L30.9998 29.832C31.3436 29.4883 31.7576 29.2656 32.242 29.1641C32.7264 29.0625 33.1951 29.0898 33.6483 29.2461C34.5233 29.5742 35.4217 29.8008 36.3436 29.9258C36.9686 30.0195 37.4881 30.3086 37.9022 30.793C38.3162 31.2773 38.5154 31.832 38.4998 32.457V35.457C38.4998 36.1445 38.2576 36.7344 37.7733 37.2266C37.2889 37.7188 36.7029 37.9648 36.0154 37.9648ZM23.1248 18.043H20.1014C20.0858 18.043 20.0662 18.043 20.0428 18.043C20.0194 18.043 19.9998 18.043 19.9842 18.043C19.8436 18.0586 19.7108 18.0859 19.5858 18.125C19.4608 18.1641 19.3475 18.2227 19.2459 18.3008C19.1444 18.3789 19.0467 18.4727 18.9529 18.582C18.8279 18.7383 18.7381 18.9102 18.6834 19.0977C18.6287 19.2852 18.6092 19.4727 18.6248 19.6602C18.9373 22.7227 19.9295 25.543 21.6014 28.1211C23.117 30.4961 25.0701 32.4414 27.4608 33.957C30.0233 35.6289 32.8279 36.6289 35.8748 36.957C35.9217 36.957 35.9686 36.957 36.0154 36.957C36.4217 36.957 36.7694 36.8086 37.0584 36.5117C37.3475 36.2148 37.492 35.8633 37.492 35.457V32.457V32.4336C37.5076 32.0586 37.3904 31.7266 37.1404 31.4375C36.8904 31.1484 36.5779 30.9727 36.2029 30.9102C35.2029 30.7852 34.2342 30.543 33.2967 30.1836C33.1092 30.1211 32.9217 30.0938 32.7342 30.1016C32.5467 30.1094 32.3631 30.1484 32.1834 30.2188C32.0037 30.2891 31.8436 30.3945 31.7029 30.5352L30.4373 31.8008C30.3904 31.8477 30.3319 31.8828 30.2615 31.9062C30.1912 31.9297 30.1209 31.9414 30.0506 31.9414C29.9803 31.9414 29.9139 31.918 29.8514 31.8711C27.2108 30.3867 25.1483 28.3242 23.6639 25.6836C23.6014 25.5898 23.5779 25.4883 23.5936 25.3789C23.6092 25.2695 23.6561 25.1758 23.7342 25.0977L24.9998 23.832C25.1092 23.7227 25.1951 23.6055 25.2576 23.4805C25.3201 23.3555 25.367 23.2227 25.3983 23.082C25.4295 22.9414 25.4412 22.8008 25.4334 22.6602C25.4256 22.5195 25.3983 22.3789 25.3514 22.2383C24.992 21.3008 24.7498 20.3242 24.6248 19.3086C24.5779 19.0742 24.4842 18.8594 24.3436 18.6641C24.2029 18.4688 24.0272 18.3164 23.8162 18.207C23.6053 18.0977 23.3748 18.043 23.1248 18.043Z" fill="white"/>
</svg>
