<svg width="50" height="50" viewBox="0 0 50 50" fill="none" xmlns="http://www.w3.org/2000/svg">
<rect width="50" height="50" rx="25" fill="#F47B35"/>
<path d="M18.0067 36.6572C17.3884 36.6572 16.7954 36.4116 16.3582 35.9743C15.9209 35.5371 15.6753 34.9441 15.6753 34.3258V15.6742C15.6753 15.0559 15.9209 14.4629 16.3582 14.0256C16.7954 13.5884 17.3884 13.3428 18.0067 13.3428H27.3325C27.7015 13.3422 28.067 13.4146 28.4079 13.5558C28.7488 13.6971 29.0584 13.9044 29.3189 14.1658L33.5015 18.3484C33.7636 18.6089 33.9715 18.9188 34.1132 19.2602C34.2548 19.6015 34.3274 19.9675 34.3268 20.3371V34.3258C34.3268 34.9441 34.0812 35.5371 33.644 35.9743C33.2067 36.4116 32.6137 36.6572 31.9954 36.6572H18.0067Z" stroke="white" stroke-width="1.5" stroke-linecap="round" stroke-linejoin="round"/>
<path d="M27.3315 13.3428V19.1714C27.3315 19.4805 27.4544 19.7771 27.673 19.9957C27.8916 20.2143 28.1881 20.3371 28.4973 20.3371H34.3259" stroke="white" stroke-width="1.5" stroke-linecap="round" stroke-linejoin="round"/>
<path d="M22.6669 21.5027H20.3354" stroke="white" stroke-width="1.5" stroke-linecap="round" stroke-linejoin="round"/>
<path d="M29.6612 26.1655H20.3354" stroke="white" stroke-width="1.5" stroke-linecap="round" stroke-linejoin="round"/>
<path d="M29.6612 30.8286H20.3354" stroke="white" stroke-width="1.5" stroke-linecap="round" stroke-linejoin="round"/>
</svg>
