<svg width="56" height="56" viewBox="0 0 56 56" fill="none" xmlns="http://www.w3.org/2000/svg">
<rect width="56" height="56" rx="28" fill="#F47B35"/>
<g clip-path="url(#clip0_1_2144)">
<path d="M39.1837 23.7117C38.9635 23.5297 33.9467 19.4953 32.8438 18.6184C31.8077 17.7902 30.0361 16 28 16C25.9748 16 24.2202 17.768 23.1562 18.6184C22.0095 19.5301 17.0123 23.5494 16.821 23.7066C16.5643 23.9177 16.3576 24.183 16.2156 24.4835C16.0736 24.784 16 25.1123 16 25.4446V37.75C16 38.9927 17.0073 40 18.25 40H37.75C38.9927 40 40 38.9927 40 37.75V25.4457C40 25.1144 39.9268 24.7872 39.7857 24.4875C39.6446 24.1877 39.4391 23.9228 39.1837 23.7117ZM37.75 37.4688C37.75 37.5433 37.7204 37.6149 37.6676 37.6676C37.6149 37.7204 37.5433 37.75 37.4688 37.75H18.5312C18.4567 37.75 18.3851 37.7204 18.3324 37.6676C18.2796 37.6149 18.25 37.5433 18.25 37.4688V25.5788C18.25 25.4938 18.2882 25.4135 18.3543 25.3601C19.0983 24.7594 23.454 21.256 24.5589 20.3776C25.4104 19.6975 26.8937 18.25 28 18.25C29.1106 18.25 30.6183 19.7204 31.4411 20.3776C32.5461 21.2561 36.9022 24.7601 37.6458 25.3612C37.6783 25.3875 37.7046 25.4208 37.7227 25.4586C37.7407 25.4965 37.75 25.5378 37.75 25.5798V37.4688ZM36.2504 28.6701C36.4496 28.912 36.4128 29.2699 36.1686 29.4661C34.8104 30.5575 33.3902 31.6972 32.8438 32.1316C31.7798 32.982 30.0252 34.75 28 34.75C25.9632 34.75 24.1897 32.9576 23.1562 32.1316C22.6275 31.7112 21.1994 30.5653 19.8315 29.466C19.5872 29.2697 19.5505 28.9119 19.7497 28.67L20.4649 27.8015C20.6607 27.5637 21.0113 27.5276 21.2514 27.7206C22.5929 28.7988 23.9967 29.9254 24.5589 30.3724C25.3817 31.0296 26.8894 32.5 28 32.5C29.1063 32.5 30.5897 31.0525 31.4411 30.3724C32.0033 29.9254 33.4072 28.7988 34.7487 27.7208C34.9888 27.5278 35.3394 27.5639 35.5352 27.8017L36.2504 28.6701Z" fill="white"/>
</g>
<defs>
<clipPath id="clip0_1_2144">
<rect width="24" height="24" fill="white" transform="translate(16 16)"/>
</clipPath>
</defs>
</svg>
