<svg width="36" height="36" viewBox="0 0 36 36" fill="none" xmlns="http://www.w3.org/2000/svg">
<rect width="36" height="36" rx="18" fill="#F47B35"/>
<path d="M18.003 14.4063C16.0155 14.4063 14.4124 16.0095 14.4124 17.997C14.4124 19.9845 16.0155 21.5876 18.003 21.5876C19.9905 21.5876 21.5937 19.9845 21.5937 17.997C21.5937 16.0095 19.9905 14.4063 18.003 14.4063ZM18.003 20.3313C16.7187 20.3313 15.6687 19.2845 15.6687 17.997C15.6687 16.7095 16.7155 15.6626 18.003 15.6626C19.2905 15.6626 20.3374 16.7095 20.3374 17.997C20.3374 19.2845 19.2874 20.3313 18.003 20.3313ZM22.578 14.2595C22.578 14.7251 22.203 15.097 21.7405 15.097C21.2749 15.097 20.903 14.722 20.903 14.2595C20.903 13.797 21.278 13.422 21.7405 13.422C22.203 13.422 22.578 13.797 22.578 14.2595ZM24.9562 15.1095C24.903 13.9876 24.6468 12.9938 23.8249 12.1751C23.0062 11.3563 22.0124 11.1001 20.8905 11.0438C19.7343 10.9782 16.2687 10.9782 15.1124 11.0438C13.9937 11.097 12.9999 11.3532 12.178 12.172C11.3562 12.9907 11.103 13.9845 11.0468 15.1063C10.9812 16.2626 10.9812 19.7282 11.0468 20.8845C11.0999 22.0063 11.3562 23.0001 12.178 23.8188C12.9999 24.6376 13.9905 24.8938 15.1124 24.9501C16.2687 25.0157 19.7343 25.0157 20.8905 24.9501C22.0124 24.897 23.0062 24.6407 23.8249 23.8188C24.6437 23.0001 24.8999 22.0063 24.9562 20.8845C25.0218 19.7282 25.0218 16.2657 24.9562 15.1095ZM23.4624 22.1251C23.2187 22.7376 22.7468 23.2095 22.1312 23.4563C21.2093 23.822 19.0218 23.7376 18.003 23.7376C16.9843 23.7376 14.7937 23.8188 13.8749 23.4563C13.2624 23.2126 12.7905 22.7407 12.5437 22.1251C12.178 21.2032 12.2624 19.0157 12.2624 17.997C12.2624 16.9782 12.1812 14.7876 12.5437 13.8688C12.7874 13.2563 13.2593 12.7845 13.8749 12.5376C14.7968 12.172 16.9843 12.2563 18.003 12.2563C19.0218 12.2563 21.2124 12.1751 22.1312 12.5376C22.7437 12.7813 23.2155 13.2532 23.4624 13.8688C23.828 14.7907 23.7437 16.9782 23.7437 17.997C23.7437 19.0157 23.828 21.2063 23.4624 22.1251Z" fill="white"/>
</svg>
