<svg width="36" height="36" viewBox="0 0 36 36" fill="none" xmlns="http://www.w3.org/2000/svg">
<rect width="36" height="36" rx="18" fill="#F47B35"/>
<g clip-path="url(#clip0_1_2161)">
<path d="M14.1337 23.9999H11.2313V14.6531H14.1337V23.9999ZM12.6809 13.3781C11.7528 13.3781 11 12.6093 11 11.6812C11 11.2354 11.1771 10.8078 11.4923 10.4926C11.8076 10.1773 12.2351 10.0002 12.6809 10.0002C13.1267 10.0002 13.5543 10.1773 13.8695 10.4926C14.1848 10.8078 14.3619 11.2354 14.3619 11.6812C14.3619 12.6093 13.6088 13.3781 12.6809 13.3781ZM24.9969 23.9999H22.1006V19.4499C22.1006 18.3656 22.0787 16.9749 20.5916 16.9749C19.0825 16.9749 18.8513 18.1531 18.8513 19.3718V23.9999H15.9519V14.6531H18.7356V15.9281H18.7762C19.1637 15.1937 20.1103 14.4187 21.5225 14.4187C24.46 14.4187 25 16.3531 25 18.8656V23.9999H24.9969Z" fill="white"/>
</g>
<defs>
<clipPath id="clip0_1_2161">
<rect width="16" height="16" fill="white" transform="translate(10 10)"/>
</clipPath>
</defs>
</svg>
