<svg width="56" height="56" viewBox="0 0 56 56" fill="none" xmlns="http://www.w3.org/2000/svg">
<rect width="56" height="56" rx="28" fill="#F47B35"/>
<path d="M28 20.6211C27.2969 20.6211 26.6406 20.7539 26.0312 21.0195C25.4219 21.2852 24.8906 21.6445 24.4375 22.0977C23.9844 22.5508 23.625 23.082 23.3594 23.6914C23.0938 24.3008 22.9609 24.9492 22.9609 25.6367C22.9609 26.3242 23.0938 26.9727 23.3594 27.582C23.625 28.1914 23.9844 28.7266 24.4375 29.1875C24.8906 29.6484 25.4219 30.0039 26.0312 30.2539C26.6406 30.5195 27.2969 30.6523 28 30.6523C28.6875 30.6523 29.3359 30.5273 29.9453 30.2773C30.5547 30.0117 31.0859 29.6484 31.5391 29.1875C31.9922 28.7266 32.3516 28.1914 32.6172 27.582C32.8828 26.9727 33.0156 26.3242 33.0156 25.6367C33.0156 24.9492 32.8828 24.3008 32.6172 23.6914C32.3516 23.082 31.9922 22.5508 31.5391 22.0977C31.0859 21.6445 30.5547 21.2852 29.9453 21.0195C29.3359 20.7539 28.6875 20.6211 28 20.6211ZM28 29.457C26.9375 29.457 26.0352 29.082 25.293 28.332C24.5508 27.582 24.1797 26.6836 24.1797 25.6367C24.1797 24.5898 24.5508 23.6914 25.293 22.9414C26.0352 22.1914 26.9375 21.8164 28 21.8164C29.0469 21.8164 29.9414 22.1914 30.6836 22.9414C31.4258 23.6914 31.7969 24.5898 31.7969 25.6367C31.7969 26.6836 31.4258 27.582 30.6836 28.332C29.9414 29.082 29.0469 29.457 28 29.457ZM28 15.8398H27.8125H27.6484C26.4453 15.8867 25.3047 16.1367 24.2266 16.5898C23.1484 17.0586 22.1914 17.6836 21.3555 18.4648C20.5195 19.2461 19.8359 20.1602 19.3047 21.207C18.7734 22.2539 18.4531 23.3789 18.3438 24.582C18.2969 25.0508 18.2852 25.5195 18.3086 25.9883C18.332 26.457 18.3828 26.9102 18.4609 27.3477L18.4844 27.4414L18.5312 27.6758C18.6094 28.0039 18.7031 28.3281 18.8125 28.6484C18.9219 28.9688 19.0469 29.2773 19.1875 29.5742C19.4375 30.168 19.7656 30.832 20.1719 31.5664C20.5938 32.3164 21.1211 33.1133 21.7539 33.957C22.3867 34.8008 23.1406 35.6914 24.0156 36.6289C24.8906 37.5664 25.9219 38.5273 27.1094 39.5117C27.2344 39.6211 27.375 39.7031 27.5312 39.7578C27.6875 39.8125 27.8438 39.8398 28 39.8398C28.1719 39.8398 28.332 39.8125 28.4805 39.7578C28.6289 39.7031 28.7656 39.6211 28.8906 39.5117C30.0781 38.5273 31.1094 37.5664 31.9844 36.6289C32.875 35.6914 33.6328 34.8008 34.2578 33.957C34.8828 33.1133 35.4062 32.3242 35.8281 31.5898C36.2344 30.8555 36.5625 30.1914 36.8125 29.5977C36.9531 29.2852 37.0781 28.9688 37.1875 28.6484C37.2969 28.3281 37.3906 28.0039 37.4688 27.6758C37.4844 27.6133 37.4961 27.5586 37.5039 27.5117C37.5117 27.4648 37.5234 27.418 37.5391 27.3711C37.5859 27.0586 37.625 26.75 37.6562 26.4453C37.6875 26.1406 37.7031 25.832 37.7031 25.5195C37.7031 24.1914 37.4453 22.9414 36.9297 21.7695C36.4141 20.582 35.7188 19.5508 34.8438 18.6758C33.9688 17.8008 32.9453 17.1055 31.7734 16.5898C30.5859 16.0898 29.3281 15.8398 28 15.8398ZM36.3203 27.1602L36.2969 27.2305L36.2734 27.3945C36.2109 27.6914 36.1328 27.9805 36.0391 28.2617C35.9453 28.543 35.8359 28.8242 35.7109 29.1055C35.4609 29.668 35.1406 30.3008 34.75 31.0039C34.3594 31.707 33.8633 32.4609 33.2617 33.2656C32.6602 34.0703 31.9375 34.9258 31.0938 35.832C30.25 36.7227 29.2578 37.6367 28.1172 38.5742C28.1016 38.5898 28.082 38.6016 28.0586 38.6094C28.0352 38.6172 28.0156 38.6211 28 38.6211C27.9844 38.6211 27.9648 38.6172 27.9414 38.6094C27.918 38.6016 27.8984 38.5898 27.8828 38.5742C26.7422 37.6367 25.75 36.7227 24.9062 35.832C24.0625 34.9258 23.3359 34.0703 22.7266 33.2656C22.1172 32.4609 21.6172 31.707 21.2266 31.0039C20.8359 30.2852 20.5234 29.6445 20.2891 29.082C20.1641 28.8164 20.0547 28.543 19.9609 28.2617C19.8672 27.9805 19.7812 27.6914 19.7031 27.3945C19.6875 27.332 19.6719 27.2852 19.6562 27.2539V27.1836V27.1602V27.1367C19.5781 26.7461 19.5312 26.3438 19.5156 25.9297C19.5 25.5156 19.5078 25.1055 19.5391 24.6992C19.6484 23.6523 19.9297 22.668 20.3828 21.7461C20.8516 20.8242 21.4492 20.0234 22.1758 19.3438C22.9023 18.6641 23.7422 18.1211 24.6953 17.7148C25.6328 17.3086 26.6328 17.082 27.6953 17.0352C28.8984 17.0039 30.0312 17.1992 31.0938 17.6211C32.1719 18.0586 33.1094 18.6641 33.9062 19.4375C34.7031 20.2109 35.3281 21.1211 35.7812 22.168C36.25 23.2148 36.4844 24.3398 36.4844 25.543C36.4844 25.8086 36.4727 26.0742 36.4492 26.3398C36.4258 26.6055 36.3828 26.8789 36.3203 27.1602Z" fill="white"/>
</svg>
