<svg width="52" height="52" viewBox="0 0 52 52" fill="none" xmlns="http://www.w3.org/2000/svg">
<rect x="0.5" y="0.5" width="51" height="51" rx="25.5" fill="#F47B35"/>
<rect x="0.5" y="0.5" width="51" height="51" rx="25.5" stroke="#F47B35"/>
<g clip-path="url(#clip0_39_1108)">
<path d="M28.0499 20C29.0267 20.1906 29.9243 20.6683 30.628 21.3719C31.3317 22.0756 31.8094 22.9733 31.9999 23.95M28.0499 16C30.0792 16.2254 31.9715 17.1342 33.4162 18.577C34.8608 20.0198 35.7719 21.911 35.9999 23.94M34.9999 31.92V34.92C35.0011 35.1985 34.944 35.4742 34.8324 35.7293C34.7209 35.9845 34.5572 36.2136 34.352 36.4019C34.1468 36.5901 33.9045 36.7335 33.6407 36.8227C33.3769 36.9119 33.0973 36.9451 32.8199 36.92C29.7428 36.5856 26.7869 35.5341 24.1899 33.85C21.7738 32.3147 19.7253 30.2662 18.1899 27.85C16.4999 25.2412 15.4482 22.271 15.1199 19.18C15.0949 18.9035 15.1278 18.6248 15.2164 18.3616C15.3051 18.0985 15.4475 17.8567 15.6347 17.6516C15.8219 17.4466 16.0497 17.2827 16.3037 17.1705C16.5577 17.0583 16.8323 17.0003 17.1099 17H20.1099C20.5952 16.9952 21.0657 17.1671 21.4337 17.4835C21.8017 17.8 22.042 18.2394 22.1099 18.72C22.2366 19.6801 22.4714 20.6227 22.8099 21.53C22.9445 21.8879 22.9736 22.2769 22.8938 22.6509C22.8141 23.0248 22.6288 23.3681 22.3599 23.64L21.0899 24.91C22.5135 27.4135 24.5864 29.4864 27.0899 30.91L28.3599 29.64C28.6318 29.3711 28.9751 29.1858 29.3491 29.1061C29.723 29.0263 30.112 29.0555 30.4699 29.19C31.3772 29.5286 32.3199 29.7634 33.2799 29.89C33.7657 29.9585 34.2093 30.2032 34.5265 30.5775C34.8436 30.9518 35.0121 31.4296 34.9999 31.92Z" stroke="white" stroke-width="1.5" stroke-linecap="round" stroke-linejoin="round"/>
</g>
<defs>
<clipPath id="clip0_39_1108">
<rect width="24" height="24" fill="white" transform="translate(13 15)"/>
</clipPath>
</defs>
</svg>
