<svg width="102" height="102" viewBox="0 0 102 102" fill="none" xmlns="http://www.w3.org/2000/svg">
<rect width="102" height="102" rx="50" fill="#F47B35"/>
<path d="M64.1161 52.9969C63.6395 54.7095 62.947 56.2583 62.0386 57.6433C61.1451 58.9985 60.1324 60.0633 59.0006 60.8377C57.8688 61.6121 56.7221 61.9993 55.5605 61.9993C55.2775 61.9993 55.002 61.977 54.7339 61.9323C54.5701 61.9025 54.4435 61.8206 54.3542 61.6866C54.2648 61.5525 54.2425 61.4036 54.2872 61.2398L55.0243 58.6709C55.0541 58.5368 55.1211 58.4326 55.2254 58.3581C55.3296 58.2837 55.4488 58.2464 55.5828 58.2464H55.6275C56.0891 58.2464 56.6104 58.0231 57.1912 57.5763C57.8464 57.0848 58.4421 56.3998 58.9782 55.5212C59.6186 54.5085 60.1249 53.332 60.4972 51.9917L60.6313 51.4556C59.9462 51.7981 59.224 52.0029 58.4645 52.0699C57.7049 52.1369 56.9529 52.0736 56.2083 51.88C55.0914 51.6119 54.1234 51.0833 53.3043 50.294C52.4852 49.5047 51.9267 48.5553 51.6289 47.4458C51.3311 46.3363 51.3348 45.2343 51.6401 44.1397C51.9454 43.0452 52.5113 42.1032 53.3378 41.3139C54.1643 40.5246 55.136 39.9997 56.2529 39.7391C57.3699 39.4785 58.4719 39.5269 59.559 39.8843C60.7206 40.2715 61.711 40.9193 62.53 41.8277C63.3491 42.7361 63.8927 43.7935 64.1607 44.9998C64.5182 46.3103 64.6931 47.6431 64.6857 48.9983C64.6783 50.3535 64.4884 51.6864 64.1161 52.9969ZM41.1522 61.9993C40.8692 61.9993 40.5937 61.977 40.3257 61.9323C40.1618 61.9025 40.0353 61.8206 39.9459 61.6866C39.8566 61.5525 39.8342 61.4036 39.8789 61.2398L40.5937 58.6485C40.6235 58.5294 40.6905 58.4326 40.7948 58.3581C40.899 58.2837 41.0182 58.2464 41.1522 58.2464H41.2192C41.6809 58.2464 42.2021 58.0231 42.7829 57.5763C43.4381 57.0848 44.0338 56.3998 44.57 55.5212C45.2103 54.5085 45.7167 53.332 46.089 51.9917L46.223 51.4556C45.538 51.7981 44.8157 52.0029 44.0562 52.0699C43.2967 52.1369 42.5446 52.0736 41.8 51.88C40.6831 51.6119 39.7151 51.0833 38.896 50.294C38.0769 49.5047 37.5185 48.5553 37.2206 47.4458C36.9228 46.3363 36.9265 45.2343 37.2318 44.1397C37.5371 43.0452 38.103 42.1032 38.9295 41.3139C39.756 40.5246 40.7278 39.9997 41.8447 39.7391C42.9616 39.4785 44.0636 39.5269 45.1508 39.8843C46.3124 40.2715 47.3027 40.9193 48.1218 41.8277C48.9408 42.7361 49.4844 43.786 49.7525 44.9774C50.1099 46.2879 50.2849 47.6245 50.2774 48.9872C50.27 50.3498 50.0801 51.6864 49.7078 52.9969C49.2312 54.7095 48.5388 56.2583 47.6303 57.6433C46.7368 58.9985 45.7241 60.0633 44.5923 60.8377C43.4605 61.6121 42.3138 61.9993 41.1522 61.9993Z" fill="white"/>
</svg>
