<svg width="83" height="83" viewBox="0 0 83 83" fill="none" xmlns="http://www.w3.org/2000/svg">
<rect width="83" height="83" rx="41.5" fill="#F47B35"/>
<path d="M51.1089 58.6759V54.7564C51.1089 52.6774 50.2992 50.6836 48.858 49.2135C47.4167 47.7434 45.462 46.9175 43.4237 46.9175H28.0533C26.0151 46.9175 24.0604 47.7434 22.6191 49.2135C21.1779 50.6836 20.3682 52.6774 20.3682 54.7564V58.6759M62.6367 58.6759V54.7564C62.6354 53.0196 62.0687 51.3324 61.0254 49.9597C59.9822 48.5869 58.5215 47.6065 56.8728 47.1723M49.1876 23.6556C50.8407 24.0874 52.3059 25.068 53.3523 26.443C54.3986 27.8179 54.9666 29.509 54.9666 31.2496C54.9666 32.9901 54.3986 34.6812 53.3523 36.0562C52.3059 37.4311 50.8407 38.4118 49.1876 38.8435M43.4237 31.2398C43.4237 35.5691 39.9829 39.0787 35.7385 39.0787C31.4941 39.0787 28.0534 35.5691 28.0534 31.2398C28.0534 26.9105 31.4941 23.4009 35.7385 23.4009C39.9829 23.4009 43.4237 26.9105 43.4237 31.2398Z" stroke="white" stroke-width="2.76667" stroke-linecap="round" stroke-linejoin="round"/>
</svg>
